<?xml version="1.0" encoding="UTF-8" standalone="no"?>
<svg width="88px" height="88px" viewBox="0 0 88 88" version="1.1" xmlns="http://www.w3.org/2000/svg" xmlns:xlink="http://www.w3.org/1999/xlink" xmlns:sketch="http://www.bohemiancoding.com/sketch/ns">
    <title>pause</title>
    <description>Created with Sketch (http://www.bohemiancoding.com/sketch)</description>
    <defs></defs>
    <g id="Page-1" stroke="none" stroke-width="1" fill="none" fill-rule="evenodd" sketch:type="MSPage">
        <path d="M44,88 C68.3005302,88 88,68.3005302 88,44 C88,19.6994698 68.3005302,0 44,0 C19.6994698,0 0,19.6994698 0,44 C0,68.3005302 19.6994698,88 44,88 Z M84,44 C84,21.9086089 66.0913911,4 44,4 C21.9086089,4 4,21.9086089 4,44 C4,66.0913911 21.9086089,84 44,84 C66.0913911,84 84,66.0913911 84,44 Z M7,44 C7,23.5654632 23.5654632,7 44,7 C64.4345368,7 81,23.5654632 81,44 C81,64.4345368 64.4345368,81 44,81 C23.5654632,81 7,64.4345368 7,44 Z M26.3888889,23.4666667 L26.3888889,64.5333333 L40.0777778,64.5333333 L40.0777778,23.4666667 L26.3888889,23.4666667 Z M49.7666667,23.4666667 L49.7666667,64.5333333 L63.4555556,64.5333333 L63.4555556,23.4666667 L49.7666667,23.4666667 Z" id="Oval-1" fill="#FFFFFF" sketch:type="MSShapeGroup"></path>
    </g>
</svg>