<?xml version="1.0" encoding="UTF-8" standalone="no"?>
<svg width="270px" height="88px" viewBox="0 0 270 88" version="1.1" xmlns="http://www.w3.org/2000/svg" xmlns:xlink="http://www.w3.org/1999/xlink" xmlns:sketch="http://www.bohemiancoding.com/sketch/ns">
    <title>cocktailnapkinstudios.com 1</title>
    <description>Created with Sketch (http://www.bohemiancoding.com/sketch)</description>
    <defs></defs>
    <g id="Home-Page" stroke="none" stroke-width="1" fill="none" fill-rule="evenodd" sketch:type="MSPage">
        <g id="Wide-Web" sketch:type="MSArtboardGroup" transform="translate(-698.000000, -465.000000)">
            <rect id="Rectangle-12" fill="#122F33" sketch:type="MSShapeGroup" x="698" y="465" width="270" height="88" rx="8"></rect>
            <g id="boat+type-+-Support-us-with-a-do" sketch:type="MSLayerGroup" transform="translate(743.000000, 482.000000)" fill="#FFFFFF">
                <g id="boat+type" transform="translate(0.000000, 13.000000)" sketch:type="MSShapeGroup">
                    <path d="M42.9409193,21.0867981 L32.9570683,23.5354944 L32.6917267,23.6006346 L31.9789938,23.7753636 L31.9020373,23.7943308 L31.6909193,23.8460598 C31.4484969,23.4784009 31.1650807,23.1415879 30.8473789,22.8429009 C30.0489317,22.0916813 29.0335901,21.5810972 27.9107329,21.420929 L30.8473789,20.7005551 L31.9020373,20.4419103 L32.6123478,20.2675645 L32.9570683,20.1830738 L42.9409193,17.7343776 L42.9409193,21.0867981 L42.9409193,21.0867981 Z M10.1637764,20.3719804 L15.6511677,20.3719804 L15.6511677,22.1978215 L12.2738385,23.0260598 L12.0198634,23.0883262 L12.0189317,23.0885178 L11.2188075,23.2847047 L10.8329068,23.3795411 L10.5647702,23.4452561 L10.1637764,23.5437327 L4.54464596,24.9218308 L4.54464596,20.3719804 L10.1637764,20.3719804 L10.1637764,20.3719804 Z M17.7608571,6.95846636 L33.6103602,6.95846636 L33.6103602,8.74828879 L17.7608571,8.74828879 L17.7608571,6.95846636 Z M27.3368199,19.3314617 L23.5754534,20.2539617 L23.5754534,15.8955084 L30.8473789,15.8955084 L30.8473789,18.4702701 L27.3368199,19.3314617 L27.3368199,19.3314617 Z M23.5754534,22.7405925 C23.236323,23.0425364 22.933528,23.3864383 22.6745217,23.764443 C22.3843975,24.1882374 22.1499876,24.6549477 21.9815404,25.1530785 C21.1575652,24.3399757 20.0883727,23.7891579 18.9001118,23.6309056 L21.465764,23.001728 L22.2684969,22.8047748 L23.5754534,22.4842467 L24.0375652,22.3710178 C23.8769441,22.4855879 23.7228447,22.6091626 23.5754534,22.7405925 L23.5754534,22.7405925 Z M30.1139627,25.3481159 C30.2812919,25.664429 30.3988696,26.0113963 30.4637143,26.3773308 C30.499118,26.5784991 30.5205466,26.784457 30.5205466,26.9957794 C30.5205466,28.9041953 29.0108571,30.4568308 27.1547702,30.4568308 C25.6314783,30.4568308 24.3427826,29.4101813 23.9293043,27.9801626 L23.9293043,27.979971 C23.8389317,27.6676813 23.7888075,27.337957 23.7888075,26.9957794 C23.7888075,26.9630178 23.7927205,26.9310224 23.7934658,26.8984523 C23.7934658,26.8982607 23.7934658,26.8984523 23.7934658,26.8982607 C23.8048323,26.4853869 23.8858882,26.090714 24.0267578,25.7261206 C24.5207329,24.4449664 25.7350807,23.5353028 27.1547702,23.5353028 C28.0109814,23.5353028 28.7911677,23.8682841 29.3855776,24.4114383 C29.6771925,24.6781299 29.9261366,24.9929103 30.1139627,25.3481159 L30.1139627,25.3481159 Z M20.4083106,26.6133682 C20.7023478,26.8787187 20.9529689,27.1936907 21.1430311,27.5483215 C21.3122236,27.8642514 21.4331553,28.2100692 21.499677,28.5760037 L21.499677,28.5761953 C21.5373168,28.782728 21.5593043,28.9950084 21.5593043,29.2126533 C21.5593043,30.2721393 21.0927205,31.2206953 20.3609814,31.8560037 C19.7749565,32.3650551 19.0188075,32.6733215 18.1933416,32.6733215 C18.0772547,32.6733215 17.9626584,32.6671907 17.8497391,32.6553121 C17.476323,32.616228 17.122472,32.5112374 16.7950807,32.3566252 C16.7648944,32.3424477 16.7352671,32.3275037 16.7058261,32.3123682 C16.3415404,32.1269103 16.0150807,31.8763121 15.7400497,31.5743682 C15.709677,31.541415 15.6798634,31.5080785 15.6511677,31.4739757 C15.3381242,31.102485 15.1009193,30.663172 14.9637764,30.1792187 C14.8767578,29.8719103 14.8275652,29.5483168 14.8275652,29.2126533 C14.8275652,29.1733776 14.8318509,29.1350598 14.8333416,29.0959757 C14.8337143,29.0827561 14.834646,29.069728 14.835205,29.0563168 C14.8519752,28.6754383 14.9276273,28.3110364 15.0550807,27.9715411 C15.0612298,27.9552561 15.0662609,27.9383963 15.0725963,27.9221112 C15.1208571,27.7994944 15.1737764,27.6791766 15.2347081,27.5638402 C15.351354,27.3435131 15.4924099,27.139471 15.6511677,26.9513308 C15.6698012,26.9294897 15.6889938,26.9082234 15.708,26.886957 C15.7186211,26.8750785 15.7290559,26.8626252 15.7400497,26.8509383 C15.8626584,26.7162514 15.9949565,26.5922935 16.1367578,26.4790645 C16.3134037,26.3382467 16.5038385,26.2158215 16.7058261,26.1127467 C16.7352671,26.0978028 16.7648944,26.0828589 16.7950807,26.0686813 C16.8578758,26.0387935 16.9216025,26.0115879 16.9864472,25.9857234 C17.2322236,25.8882047 17.4914161,25.8196159 17.7608571,25.7837888 C17.7906708,25.7797654 17.8197391,25.7730598 17.8497391,25.7698028 C17.9127205,25.7632888 17.9773789,25.762714 18.0414783,25.7598402 C18.0921615,25.7575411 18.141913,25.7517935 18.1933416,25.7517935 C19.0417267,25.7517935 19.815764,26.0788355 20.4083106,26.6133682 L20.4083106,26.6133682 Z M11.385764,25.4739897 L11.7105466,25.3944804 L12.2738385,25.2561533 L15.1145217,24.5595364 C14.7707329,24.8005551 14.4554534,25.0812327 14.1739006,25.3944804 C13.8787453,25.7224804 13.6216025,26.0863075 13.4086211,26.4790645 C13.3365093,26.6118355 13.2701739,26.7480551 13.2084969,26.886957 C13.1389938,27.0440598 13.0760124,27.205186 13.0202981,27.3699523 C12.8447702,27.1965645 12.6586211,27.0352467 12.4622236,26.886957 C12.4001739,26.8402093 12.3377516,26.7944196 12.2738385,26.7503542 C12.1333416,26.6534103 11.9883727,26.5627888 11.8389317,26.4790645 C11.6395528,26.3677514 11.4319752,26.2700411 11.2188075,26.1844009 C10.8817267,26.0489477 10.5291801,25.9470224 10.1637764,25.8822654 C10.0728447,25.8663636 9.98135404,25.8525692 9.88930435,25.8410738 L10.1637764,25.7738262 L11.2188075,25.5149897 L11.385764,25.4739897 L11.385764,25.4739897 Z M6.11880745,30.118485 L6.11880745,30.1182935 C6.62228571,28.8584056 7.82731677,27.9684757 9.23209938,27.9684757 C9.55557764,27.9684757 9.86750311,28.0182888 10.1637764,28.106228 C10.5483727,28.220415 10.9039006,28.403957 11.2188075,28.6419103 C11.2920373,28.6970879 11.3628447,28.7543729 11.4312298,28.8154897 L11.4316025,28.8154897 C11.5169441,28.8913589 11.5981863,28.9720178 11.6757019,29.0563168 C11.8672547,29.2647654 12.0351429,29.4963963 12.1722857,29.7489103 C12.2089938,29.8165411 12.2414161,29.886471 12.2738385,29.9571673 C12.3921615,30.2142794 12.4819752,30.487485 12.5358261,30.7746766 C12.5755155,30.986957 12.5980621,31.2053682 12.5980621,31.4293355 C12.5980621,31.9562047 12.4797391,32.4541439 12.2738385,32.9015037 C12.0329068,33.4253075 11.6688075,33.8766907 11.2188075,34.2165692 C10.9039006,34.4545224 10.5483727,34.6378729 10.1637764,34.7520598 C9.86750311,34.8401907 9.55557764,34.8900037 9.23209938,34.8900037 C7.69632298,34.8900037 6.40073292,33.8261112 5.99806211,32.3782748 C5.99806211,32.3782748 5.99806211,32.3782748 5.99806211,32.3780832 C5.91402484,32.0761393 5.86632298,31.7586766 5.86632298,31.4293355 C5.86632298,31.3835458 5.87135404,31.3390972 5.87284472,31.2938822 C5.88868323,30.8794757 5.97309317,30.4832701 6.11880745,30.118485 L6.11880745,30.118485 Z M30.8473789,13.7261486 L21.465764,13.7261486 L21.465764,20.771443 L18.0414783,21.6113682 L17.8497391,21.6583075 L17.7608571,21.6801486 L17.7608571,10.9368075 L30.8473789,10.9368075 L30.8473789,13.7261486 L30.8473789,13.7261486 Z M12.2738385,2.25879346 L15.7400497,2.25879346 L15.7400497,5.36291495 L12.2738385,5.36291495 L12.2738385,2.25879346 Z M2.3343354,16.1026159 L15.4866335,16.1026159 L15.4866335,18.2026206 L2.3343354,18.2026206 L2.3343354,16.1026159 Z M2.10141615,31.1038262 L2.10141615,27.7514056 L2.42713043,27.6715131 L2.86576398,27.5638402 L6.19501863,26.7472888 C5.85290683,26.9827514 5.53837267,27.2574897 5.2564472,27.5638402 C4.48408696,28.4029991 3.96048447,29.4850925 3.80545342,30.6857794 L2.10141615,31.1038262 L2.10141615,31.1038262 Z M32.9570683,17.9527888 L32.9570683,10.9178402 L35.7200497,10.9178402 L35.7200497,4.78891495 L17.8497391,4.78891495 L17.8497391,0.0894336449 L10.1637764,0.0894336449 L10.1637764,13.9332561 L0.224645963,13.9332561 L0.224645963,20.3719804 L2.43477019,20.3719804 L2.43477019,25.4393121 L-0.00827329193,26.0386019 L-0.00827329193,41.1534243 L31.939118,41.1534243 C39.169118,41.1534243 45.0506087,35.1057327 45.0506087,27.6722794 L45.0506087,14.9866112 L32.9570683,17.9527888 L32.9570683,17.9527888 Z M7.66595031,31.9690411 C7.88638509,32.6419009 8.50445963,33.1285364 9.23247205,33.1285364 C9.57775155,33.1285364 9.89824845,33.0189477 10.1637764,32.8321486 C10.5992422,32.5257981 10.8858261,32.0111907 10.8858261,31.4289523 C10.8858261,31.3458028 10.878,31.2643776 10.8664472,31.1841019 C10.8114783,30.7953682 10.6292422,30.4497421 10.3633416,30.1924383 C10.3009193,30.1320879 10.2347702,30.0757607 10.1637764,30.0257561 C9.89824845,29.8387654 9.57775155,29.7291766 9.23247205,29.7291766 C8.51843478,29.7291766 7.9106087,30.1976112 7.67973913,30.8507374 C7.61582609,31.0315972 7.57911801,31.2258682 7.57911801,31.4289523 C7.57911801,31.6178589 7.61042236,31.7992935 7.66595031,31.9690411 Z M18.0414783,27.5207327 C17.9762609,27.526672 17.9123478,27.536443 17.8497391,27.5500458 C17.8322236,27.5540692 17.8152671,27.5594336 17.7979379,27.5638402 C17.7856398,27.5670972 17.7733416,27.5703542 17.7608571,27.5736112 C17.3561366,27.6866486 17.0134658,27.9535318 16.7950807,28.3096953 C16.7622857,28.362957 16.7328447,28.4181346 16.7058261,28.475228 C16.6786211,28.533471 16.6542112,28.5930551 16.6333416,28.6545551 C16.5899255,28.7825364 16.5601118,28.9166486 16.5476273,29.0563168 C16.5429689,29.1078542 16.5399876,29.1597748 16.5399876,29.2126533 C16.5399876,29.4078822 16.5737143,29.5948729 16.6331553,29.7696019 C16.6331553,29.7696019 16.6331553,29.7696019 16.6331553,29.7697935 C16.6540248,29.831485 16.6784348,29.8916439 16.7058261,29.9498869 C16.7328447,30.0069804 16.7622857,30.0621579 16.7950807,30.1156112 C17.0134658,30.4717748 17.3561366,30.7384664 17.7608571,30.8515037 C17.7904845,30.8595505 17.8195528,30.8683636 17.8497391,30.8750692 C17.960795,30.8992093 18.0753913,30.912429 18.1933416,30.912429 C19.1048944,30.912429 19.8466957,30.149714 19.8466957,29.2126533 C19.8466957,29.135443 19.8396149,29.0601486 19.8301118,28.9856206 L19.8301118,28.985429 C19.7792422,28.5972701 19.6012919,28.2503028 19.3398634,27.9907 C19.0422857,27.6954617 18.6383106,27.512686 18.1933416,27.512686 C18.141913,27.512686 18.0916025,27.5157514 18.0414783,27.5207327 Z M25.5535901,26.4666112 C25.5206087,26.6003402 25.5010435,26.7398168 25.5010435,26.8837 C25.5010435,27.1243355 25.5506087,27.3530925 25.6387453,27.5607748 C25.6387453,27.5607748 25.6387453,27.5607748 25.6387453,27.5609664 C25.8938385,28.1617888 26.476882,28.5834757 27.1543975,28.5834757 C28.0661366,28.5834757 28.8077516,27.8209523 28.8077516,26.8837 C28.8077516,26.8503636 28.8049565,26.8177935 28.8029068,26.7846486 C28.7809193,26.3968729 28.6329689,26.0441579 28.3993043,25.7686533 L28.399118,25.7686533 C28.0959503,25.4111486 27.650795,25.1839243 27.1543975,25.1839243 C26.3829689,25.1839243 25.7350807,25.7307187 25.5535901,26.4666112 Z M55.0460124,12.2334804 L48.4763851,12.2334804 L48.4763851,6.30419065 L68.6414161,6.30419065 L68.6414161,12.2334804 L61.9581242,12.2334804 L61.9581242,32.7712234 L55.0460124,32.7712234 L55.0460124,12.2334804 Z M84.3379379,26.1738636 C84.3379379,28.9227794 84.4150807,31.1220271 84.4914783,32.7712234 L78.5716025,32.7712234 L78.2661988,30.2184944 L78.1126584,30.2184944 C77.4256398,31.2785551 75.7834658,33.2028729 72.4229068,33.2028729 C68.2216025,33.2028729 65.7778137,30.4150645 65.7778137,24.8386813 L65.7778137,13.4510271 L72.651913,13.4510271 L72.651913,23.7000692 C72.651913,26.1738636 73.4533416,27.5090458 75.0573168,27.5090458 C76.3560745,27.5090458 77.0058261,26.6060879 77.2730311,25.8598495 C77.4256398,25.5851112 77.4638385,25.2314383 77.4638385,24.8386813 L77.4638385,13.4510271 L84.3379379,13.4510271 L84.3379379,26.1738636 Z M98.3548323,21.4224617 C98.3548323,21.1477234 98.3168199,20.7944336 98.2786211,20.5193121 C97.9722857,19.1452374 97.0944596,18.3202561 95.8339006,18.3202561 C94.1917267,18.3202561 92.7787453,19.9694523 92.7787453,23.0323822 C92.7787453,25.5454523 93.9245217,27.3914103 95.8339006,27.3914103 C97.0944596,27.3914103 98.0104845,26.5275364 98.2394907,25.4674757 C98.3548323,25.0741439 98.3548323,24.4461159 98.3548323,24.0144664 L98.3548323,21.4224617 Z M105.228932,29.9437561 C105.228932,33.3603589 104.580112,36.5405411 102.326385,38.582686 C100.149801,40.4675364 97.2852671,40.9781206 94.3827205,40.9781206 C91.7853913,40.9781206 89.150795,40.4675364 87.3940248,39.5643869 L88.6918509,34.2236579 C89.8378137,34.8520692 91.9761988,35.5983075 94.1155155,35.5983075 C96.5600497,35.5983075 98.4694286,34.2635084 98.4694286,31.2392794 L98.4694286,30.3759804 L98.3930311,30.3759804 C97.2470683,31.8676907 95.5666957,32.5353776 93.6955155,32.5353776 C89.1125963,32.5353776 85.789118,28.765485 85.789118,23.1502093 C85.789118,17.0634336 89.6088075,13.0193776 94.306323,13.0193776 C96.5982484,13.0193776 98.1640248,13.9223355 99.1564472,15.4927888 L99.2328447,15.4927888 L99.4618509,13.4510271 L105.419739,13.4510271 C105.305329,14.6292981 105.228932,16.3177701 105.228932,19.4199757 L105.228932,29.9437561 Z M114.204149,24.3677561 C114.204149,24.7208542 114.242348,25.0741439 114.28036,25.3496486 C114.547565,26.5668121 115.617317,27.6661486 116.992286,27.6661486 C119.016075,27.6661486 120.314646,26.0953121 120.314646,23.0323822 C120.314646,20.401485 119.28328,18.4378916 116.992286,18.4378916 C115.655329,18.4378916 114.509366,19.4592514 114.28036,20.8337093 C114.242348,21.1477234 114.204149,21.4617374 114.204149,21.7761346 L114.204149,24.3677561 Z M107.33005,4.89103178 L114.204149,4.89103178 L114.204149,15.4146206 L114.28036,15.4146206 C115.350112,13.961228 117.221292,13.0193776 119.627627,13.0193776 C124.095391,13.0193776 127.380484,16.7886953 127.304273,22.7183682 C127.304273,29.7082935 123.026571,33.2028729 118.672658,33.2028729 C116.686882,33.2028729 114.585764,32.4568262 113.326137,30.2968542 L113.248994,30.2968542 L112.981789,32.7712234 L107.176509,32.7712234 C107.252907,31.5144009 107.33005,29.0406065 107.33005,26.6453636 L107.33005,4.89103178 Z M135.132783,23.1109336 C135.132783,25.9776766 136.049553,28.2160084 138.188683,28.2160084 C140.02036,28.2160084 141.052658,26.2131393 141.052658,23.1109336 C141.052658,20.4407607 140.212286,18.0062421 138.149553,18.0062421 C135.896758,18.0062421 135.132783,20.558971 135.132783,23.1109336 Z M148.155764,22.9147467 C148.155764,29.9437561 143.268186,33.2028729 137.996758,33.2028729 C132.383404,33.2028729 128.029491,29.5121065 128.029491,23.2285692 C128.029491,17.1027093 131.962658,13.0193776 138.378745,13.0193776 C144.259491,13.0193776 148.155764,17.1027093 148.155764,22.9147467 Z M159.689925,23.935915 C156.902348,23.935915 155.298,24.7601299 155.298,26.4486019 C155.298,27.6661486 156.099242,28.2945598 157.245205,28.2945598 C158.238373,28.2945598 159.307938,27.5875972 159.613528,26.5275364 C159.689925,26.2131393 159.689925,25.8598495 159.689925,25.5067514 L159.689925,23.935915 Z M166.373776,28.0585224 C166.373776,29.9830318 166.450174,31.789714 166.679366,32.7712234 L160.491168,32.7712234 L160.111043,31.0827514 L159.995516,31.0827514 C158.659491,32.6137374 156.788683,33.2028729 154.763217,33.2028729 C150.945205,33.2028729 148.576882,30.3361299 148.576882,27.116672 C148.576882,21.9330458 153.082472,19.6554383 159.460733,19.6161626 L159.460733,19.4592514 C159.460733,18.6743121 158.888683,17.8100551 156.404832,17.8100551 C154.42036,17.8100551 152.318497,18.516443 151.096137,19.2630645 L149.87564,14.7471252 C151.096137,14.1190972 153.77005,13.0193776 157.666323,13.0193776 C164.119118,13.0193776 166.373776,16.7101439 166.373776,21.5400972 L166.373776,28.0585224 Z M176.111665,7.95396168 L176.111665,13.4510271 L180.007938,13.4510271 L180.007938,18.6346533 L176.111665,18.6346533 L176.111665,24.1713776 C176.111665,26.4878776 176.646447,27.430686 178.288062,27.430686 C179.091168,27.430686 179.357627,27.430686 179.93154,27.2735832 L179.93154,32.6530131 C179.128435,32.9281346 177.602348,33.2028729 175.843342,33.2028729 C173.819739,33.2028729 172.140857,32.4568262 171.145826,31.4358495 C170.001727,30.2577701 169.390547,28.3338355 169.390547,25.3889243 L169.390547,18.6346533 L167.061354,18.6346533 L167.061354,13.4510271 L169.390547,13.4510271 L169.390547,9.79934486 L176.111665,7.95396168 Z" id="Fill-15"></path>
                </g>
                <text id="Support-us-with-a-do" sketch:type="MSTextLayer" font-family="Trade Gothic LT Std" font-size="12" font-weight="normal">
                    <tspan x="20" y="9">Support us with a donation via</tspan>
                </text>
            </g>
        </g>
    </g>
</svg>